<svg width="32" height="32" viewBox="0 0 32 32" fill="none" xmlns="http://www.w3.org/2000/svg">
<g id="aws-svgrepo-com 1">
<path id="Vector" d="M26.179 19.7767C27.3054 19.6395 29.7894 19.3443 30.2317 19.9139C30.6737 20.473 29.7369 22.8257 29.3158 23.8699C29.1895 24.1865 29.4632 24.313 29.7474 24.0705C31.6 22.5091 32.0843 19.2491 31.7054 18.7745C31.3263 18.3105 28.0738 17.9094 26.0947 19.302C25.7894 19.5235 25.8421 19.8189 26.179 19.7767Z" fill="#FF9900"/>
<path id="Vector_2" d="M15.9684 25.484C20.2948 25.484 25.3263 24.1229 28.7896 21.5595C29.3579 21.1375 28.8632 20.4941 28.2842 20.7578C24.4 22.4034 20.179 23.2054 16.3369 23.2054C10.6421 23.2054 5.13686 21.6335 0.673931 19.0383C0.284171 18.8062 -0.0104422 19.2071 0.315744 19.5025C4.44225 23.2369 9.90529 25.484 15.9684 25.484Z" fill="#FF9900"/>
<path id="Vector_3" d="M9.0948 13.4049C9.0948 13.7953 9.13682 14.1116 9.21042 14.3437C9.304 14.6048 9.41666 14.8587 9.54749 15.1032C9.59997 15.1877 9.62109 15.2722 9.62109 15.346C9.62109 15.4516 9.55794 15.5572 9.42098 15.6626L8.75794 16.1057C8.66322 16.1688 8.56829 16.2006 8.48424 16.2006C8.37885 16.2006 8.27368 16.1477 8.1685 16.0528C8.02658 15.9 7.89964 15.734 7.78941 15.557C7.67173 15.3542 7.56283 15.1466 7.46301 14.9345C6.6421 15.9051 5.61042 16.3905 4.3684 16.3905C3.48413 16.3905 2.77906 16.1372 2.26322 15.631C1.74738 15.1245 1.48413 14.4491 1.48413 13.6054C1.48413 12.7085 1.79986 11.9806 2.442 11.4322C3.08413 10.8835 3.93682 10.6093 5.0212 10.6093C5.37896 10.6093 5.74738 10.6409 6.13693 10.6936C6.52626 10.7465 6.92626 10.8308 7.34738 10.9257V10.1556C7.34738 9.35387 7.17885 8.79473 6.85245 8.46769C6.51581 8.14065 5.94728 7.98257 5.13682 7.98257C4.7684 7.98257 4.38952 8.02459 3.99997 8.11953C3.61298 8.21197 3.23306 8.33188 2.86312 8.47835C2.74342 8.53204 2.62035 8.57786 2.49469 8.61553C2.42109 8.63643 2.3684 8.6471 2.32616 8.6471C2.17896 8.6471 2.10514 8.54171 2.10514 8.32006V7.80315C2.10514 7.63441 2.12648 7.50769 2.17896 7.43409C2.23144 7.36006 2.32616 7.28625 2.47357 7.21222C2.842 7.02235 3.28424 6.86427 3.79986 6.73755C4.3157 6.60059 4.86333 6.53702 5.4421 6.53702C6.6948 6.53702 7.61042 6.82203 8.19986 7.39163C8.77885 7.96123 9.07368 8.82651 9.07368 9.98683V13.4049H9.0948ZM4.82109 15.0085C5.1684 15.0085 5.52637 14.9451 5.90525 14.8186C6.28413 14.6919 6.62098 14.4598 6.90514 14.1434C7.07368 13.9429 7.19997 13.7214 7.26312 13.4682C7.32626 13.215 7.36829 12.9091 7.36829 12.5505V12.1074C7.04913 12.0296 6.72584 11.9697 6.39997 11.9282C6.07181 11.8863 5.74135 11.8651 5.41053 11.8646C4.70525 11.8646 4.18941 12.0018 3.8421 12.2866C3.4948 12.5716 3.32626 12.9724 3.32626 13.4998C3.32626 13.9956 3.45256 14.3649 3.71581 14.6181C3.9684 14.8818 4.33682 15.0085 4.82088 15.0085H4.82109ZM13.2736 16.1477C13.0841 16.1477 12.9578 16.1161 12.8736 16.0423C12.7895 15.9789 12.7157 15.8311 12.6526 15.6308L10.179 7.47611C10.1158 7.26491 10.0842 7.12795 10.0842 7.05414C10.0842 6.88539 10.1683 6.79046 10.3368 6.79046H11.3683C11.5684 6.79046 11.7054 6.82203 11.779 6.89585C11.8632 6.95921 11.9262 7.10705 11.9895 7.30737L13.758 14.291L15.4001 7.30737C15.4526 7.09617 15.5157 6.95921 15.6 6.89585C15.6842 6.83249 15.8314 6.79046 16.0211 6.79046H16.8631C17.0632 6.79046 17.2 6.82203 17.2842 6.89585C17.3685 6.95921 17.4421 7.10705 17.4841 7.30737L19.1473 14.3755L20.9685 7.30737C21.0314 7.09617 21.105 6.95921 21.1789 6.89585C21.2631 6.83249 21.3999 6.79046 21.5895 6.79046H22.5683C22.7368 6.79046 22.8315 6.87473 22.8315 7.05414C22.8315 7.10683 22.8211 7.15953 22.8104 7.22289C22.794 7.31284 22.7693 7.4011 22.7368 7.48657L20.2001 15.6417C20.1367 15.8526 20.0631 15.9896 19.9788 16.053C19.8948 16.1163 19.7578 16.1586 19.5788 16.1586H18.6737C18.4736 16.1586 18.3366 16.1268 18.2526 16.053C18.1685 15.9792 18.0947 15.842 18.0527 15.631L16.4211 8.82673L14.8 15.6205C14.7473 15.8315 14.6841 15.9687 14.5999 16.0425C14.5158 16.1163 14.3684 16.1479 14.179 16.1479L13.2736 16.1477ZM26.8 16.4327C26.2526 16.4327 25.7051 16.3693 25.1789 16.2428C24.6526 16.1161 24.2421 15.9789 23.9684 15.8206C23.7999 15.7257 23.6842 15.6201 23.642 15.5254C23.601 15.4322 23.5796 15.3317 23.5788 15.2299V14.6919C23.5788 14.4705 23.6631 14.3649 23.821 14.3649C23.8841 14.3649 23.9473 14.3755 24.0104 14.3964C24.0736 14.4178 24.1683 14.4598 24.2737 14.502C24.6455 14.6659 25.0336 14.7896 25.4317 14.8711C25.8526 14.9556 26.2632 14.9978 26.6841 14.9978C27.3474 14.9978 27.8632 14.8818 28.221 14.6497C28.579 14.4176 28.7684 14.0801 28.7684 13.6474C28.7684 13.3522 28.6737 13.1096 28.4842 12.9091C28.2948 12.7085 27.9368 12.5293 27.421 12.3606L25.8948 11.8857C25.1264 11.6432 24.5578 11.2845 24.2105 10.8097C23.8632 10.3454 23.6842 9.82854 23.6842 9.28006C23.6842 8.83697 23.779 8.44657 23.9684 8.10907C24.1578 7.77158 24.4104 7.47611 24.7264 7.24401C25.0421 7.00145 25.3999 6.82203 25.821 6.69553C26.2421 6.56881 26.6841 6.51611 27.1473 6.51611C27.379 6.51611 27.6211 6.52678 27.8526 6.55835C28.0947 6.58993 28.3157 6.63217 28.5367 6.67441C28.7473 6.7271 28.9474 6.77979 29.1368 6.84294C29.3263 6.90651 29.4737 6.96966 29.5788 7.03302C29.7263 7.1175 29.8316 7.20177 29.8948 7.2967C29.9579 7.38118 29.9895 7.49723 29.9895 7.64486V8.14086C29.9895 8.36251 29.9052 8.47857 29.7474 8.47857C29.6631 8.47857 29.5264 8.43633 29.3474 8.35185C28.7473 8.07771 28.0736 7.94054 27.3263 7.94054C26.7264 7.94054 26.2526 8.03547 25.9264 8.23579C25.6 8.43633 25.4317 8.74225 25.4317 9.17489C25.4317 9.47014 25.5368 9.72315 25.7474 9.92369C25.9579 10.1242 26.3473 10.3248 26.9051 10.504L28.4 10.9788C29.1579 11.2214 29.7051 11.5591 30.0315 11.9915C30.3579 12.424 30.5158 12.9197 30.5158 13.4684C30.5158 13.922 30.4211 14.3335 30.2421 14.6921C30.0527 15.0507 29.8001 15.3673 29.4737 15.6205C29.1473 15.8842 28.7579 16.0741 28.3053 16.2113C27.8316 16.3589 27.3367 16.4327 26.8 16.4327Z" fill="#252F3E"/>
</g>
</svg>
