<svg width="32" height="32" viewBox="0 0 32 32" fill="none" xmlns="http://www.w3.org/2000/svg">
<g id="codeigniter-svgrepo-com 1">
<g id="Group">
<path id="Vector" d="M3.90574 30.2427C3.35795 30.2427 3.19865 29.9238 3.19865 29.4459C3.19865 29.2866 3.21872 29.107 3.24336 28.9177C3.36329 28.0912 3.65624 27.6184 4.36332 27.6184C4.84149 27.6184 5.07473 27.8323 5.07473 28.2208V28.4101H5.54909C5.55442 28.4101 5.55442 28.2358 5.55442 28.1961C5.55442 27.6285 5.21066 27.0902 4.36409 27.0902C3.21364 27.0902 2.74055 27.7152 2.56626 28.9403C2.54136 29.1047 2.52637 29.2582 2.52637 29.4221C2.52637 30.1441 2.81042 30.8009 3.82621 30.8009C4.59809 30.8009 5.05644 30.4246 5.32525 29.9614L4.87198 29.6563C4.57827 30.1195 4.25941 30.2427 3.90574 30.2427ZM7.0184 27.9619C6.09687 27.9619 5.69874 28.4347 5.56433 29.3758C5.54909 29.4858 5.53918 29.6002 5.53918 29.7046C5.53918 30.3121 5.82298 30.7953 6.60959 30.7953C7.53112 30.7953 7.93459 30.3022 8.069 29.3758C8.08399 29.2564 8.0939 29.1469 8.0939 29.0374C8.09415 28.42 7.80044 27.9619 7.0184 27.9619ZM7.4018 29.3761C7.3022 30.0585 7.08827 30.2676 6.68455 30.2676C6.36111 30.2676 6.20181 30.1332 6.20181 29.7297C6.20181 29.6301 6.21197 29.5107 6.23179 29.3761C6.33138 28.699 6.53058 28.4899 6.93887 28.4899C7.26765 28.4899 7.43178 28.6243 7.43178 29.0326C7.43178 29.1321 7.42162 29.2467 7.4018 29.3761ZM10.4103 27.1397L10.2561 28.0539C10.2462 28.1334 10.2512 28.107 10.2812 28.1817C10.1369 28.0722 9.87775 27.9997 9.70346 27.9997C8.8767 27.9997 8.41378 28.374 8.26438 29.4198C8.24456 29.5443 8.23948 29.6492 8.23948 29.7536C8.23948 30.5158 8.68767 30.7999 9.29008 30.7999C9.54441 30.7999 9.79314 30.8052 9.98726 30.6411L10.0368 30.9508H10.515L11.0727 27.1397H10.4103ZM9.9372 30.123C9.71337 30.2572 9.49435 30.2874 9.35995 30.2874C8.99637 30.2874 8.89677 30.0981 8.89677 29.7945C8.89677 29.6799 8.91176 29.5458 8.93183 29.401C9.04617 28.6093 9.30024 28.4695 9.62901 28.4695C9.84294 28.4695 10.0071 28.5046 10.1618 28.5894L9.9372 30.123ZM12.527 27.9619C11.6154 27.9619 11.1875 28.3948 11.0429 29.3758C11.0277 29.4955 11.0178 29.6101 11.0178 29.7196C11.0178 30.3919 11.3615 30.7953 12.1182 30.7953C12.7059 30.7953 13.1444 30.5512 13.3784 30.103L12.8753 29.8987C12.731 30.1177 12.5369 30.2671 12.1931 30.2671C11.8247 30.2671 11.6753 30.168 11.6753 29.8392C11.6753 29.7745 11.6804 29.6802 11.6903 29.6802H13.4879C13.513 29.4261 13.5425 29.2465 13.5425 29.0976C13.5425 28.5999 13.3535 27.9619 12.527 27.9619ZM12.8705 29.1723H11.7749C11.8847 28.9182 12.0686 28.5249 12.4472 28.5249C12.7409 28.5249 12.8855 28.6967 12.8855 28.9904C12.8852 29.0402 12.8807 29.1723 12.8705 29.1723ZM15.459 27.9019L15.5187 27.3938H14.1142L14.0547 27.9019H14.4231L14.025 30.4427H13.6561L13.5966 30.9508H15.0009L15.0609 30.4427H14.6922L15.0903 27.9019H15.459ZM18.3128 28.6641L18.4921 28.156H18.0091L17.6608 28.2279C17.4664 28.1037 17.2025 28.0104 16.9537 28.0104C16.2413 28.0104 15.6341 28.3544 15.6341 29.1365C15.6341 29.3557 15.7136 29.5328 15.8081 29.6525C15.659 29.732 15.5294 29.8652 15.5294 30.0448C15.5294 30.1243 15.5591 30.2059 15.6191 30.2803C15.32 30.4599 15.1363 30.7575 15.1363 31.1058C15.1363 31.7783 15.8383 31.9219 16.3762 31.9219C17.0533 31.9219 17.8603 31.7672 17.8603 30.9056C17.8603 30.6119 17.6761 30.3825 17.1433 30.2829L16.1821 30.1032C16.0726 30.0831 16.0477 30.0483 16.0477 29.9985C16.0477 29.9238 16.0929 29.8842 16.1674 29.8842L16.2321 29.8941C16.3617 29.9238 16.5111 29.9391 16.6653 29.9391C17.3577 29.9391 17.9751 29.64 17.9751 28.8633C17.9751 28.7536 17.9553 28.6794 17.9055 28.5597C17.9901 28.5996 18.0998 28.6644 18.1443 28.6644H18.3128V28.6641ZM16.9436 30.7254C17.1326 30.7605 17.1971 30.8301 17.1971 30.9546C17.1971 31.3581 16.7639 31.4079 16.4504 31.4079C15.9722 31.4079 15.7931 31.2936 15.7931 31.0392C15.7931 30.8151 15.8576 30.7107 16.0073 30.5512L16.9436 30.7254ZM16.739 29.421C16.4501 29.421 16.2908 29.3166 16.2908 29.0674C16.2908 28.699 16.505 28.4848 16.8785 28.4848C17.1773 28.4848 17.3219 28.6093 17.3219 28.8529C17.3219 29.2216 17.1125 29.421 16.739 29.421ZM20.0819 27.9619C19.8029 27.9619 19.5542 28.0988 19.2452 28.3425L19.2005 28.156H18.6525L18.2691 30.9508H18.9314L19.2203 28.8313C19.4147 28.7119 19.6535 28.5384 19.8578 28.5384C20.1065 28.5384 20.1965 28.6586 20.1965 28.8875C20.1965 28.9424 20.1911 29.1047 20.1812 29.1644L19.9376 30.9508H20.5999L20.8436 29.1499C20.8538 29.0656 20.8637 28.9269 20.8637 28.8473C20.8639 28.3737 20.6396 27.9619 20.0819 27.9619ZM22.1218 30.2506L22.1269 30.1822L22.4156 28.156H21.3149L21.2455 28.6641H21.7283C21.6884 28.6641 21.6635 28.7086 21.6587 28.7488L21.4595 30.0981C21.4496 30.1632 21.4447 30.2984 21.4447 30.3527C21.4447 30.7013 21.6338 30.9508 22.022 30.9508H22.3607L22.4354 30.4427H22.2214C22.1465 30.4427 22.1218 30.3103 22.1218 30.2506ZM22.55 27.1397H21.9026C21.8627 27.1397 21.8627 26.9931 21.8579 27.0429L21.7679 27.7589C21.7628 27.8039 21.7628 27.9019 21.8027 27.9019H22.4504C22.4902 27.9019 22.4903 27.7279 22.4951 27.6827L22.585 27.13C22.5901 27.0802 22.5901 27.1397 22.55 27.1397ZM23.9006 30.2676C23.7365 30.2676 23.6567 30.1977 23.6567 30.0486L23.6618 30.0384L23.8709 28.6641H24.6278L24.8567 28.156H23.9405L24.0947 27.0378L23.3978 27.2606L23.2731 28.156H22.8698L22.8002 28.6641H23.2682C23.2235 28.9182 23.1785 28.7533 23.1737 28.8034L22.9943 30.0085C22.9844 30.0633 22.9844 30.1032 22.9844 30.1528C22.9844 30.6259 23.333 30.8029 23.7517 30.8029C24.14 30.8029 24.4537 30.6896 24.6979 30.4851L24.3889 30.105C24.2342 30.1995 24.1298 30.2676 23.9006 30.2676ZM26.3308 27.9619C25.4195 27.9619 24.9914 28.3948 24.8468 29.3758C24.8318 29.4955 24.8219 29.6101 24.8219 29.7196C24.8219 30.3919 25.1654 30.7953 25.9223 30.7953C26.51 30.7953 26.9485 30.5512 27.1822 30.103L26.6794 29.8987C26.5351 30.1177 26.3407 30.2671 25.997 30.2671C25.6288 30.2671 25.4792 30.168 25.4792 29.8392C25.4792 29.7745 25.4845 29.6802 25.4944 29.6802H27.292C27.3169 29.4261 27.3469 29.2465 27.3469 29.0976C27.3469 28.5999 27.1576 27.9619 26.3308 27.9619ZM26.6746 29.1723H25.579C25.6885 28.9182 25.8725 28.5249 26.2513 28.5249C26.545 28.5249 26.6896 28.6967 26.6896 28.9904C26.6893 29.0402 26.6845 29.1723 26.6746 29.1723ZM29.1795 27.9619C28.9404 27.9619 28.7163 28.0988 28.4922 28.3125L28.4524 28.156H27.9048L27.5212 30.9508H28.1886L28.4823 28.7866C28.6566 28.6822 28.8558 28.593 29.0451 28.593C29.1648 28.593 29.2791 28.5739 29.3886 28.5889L29.4737 28.0114C29.3736 27.9916 29.274 27.9619 29.1795 27.9619ZM12.2676 25.1378C10.7602 24.4864 9.34953 22.8303 9.34623 21.1359C9.34216 19.2886 10.5129 17.7202 11.969 16.6894C11.794 17.3507 11.6984 17.9557 12.1322 18.5472C12.5354 19.0972 13.2414 19.3645 13.9081 19.2194C15.4661 18.8785 15.5375 17.1658 14.6139 16.168C13.7008 15.1799 12.8174 14.0638 13.165 12.6308C13.339 11.9125 13.7801 11.2397 14.3388 10.7588C13.9094 11.8874 15.1297 13.0005 15.9339 13.5549C17.3287 14.5168 18.859 15.2437 20.1416 16.3713C21.4907 17.5563 22.4869 19.1587 22.2857 21.017C22.0677 23.0313 20.4671 24.4323 18.6718 25.1396C22.4656 24.3022 26.3857 21.3577 26.466 17.15C26.5326 13.6885 24.158 11.0245 21.2163 9.49933L21.0626 9.41548C21.1434 9.61137 21.1698 9.77805 21.1668 9.92719C21.1932 9.81717 21.211 9.70411 21.2161 9.58749C21.2148 9.73257 21.1963 9.86951 21.1622 9.99808L21.1668 9.92719C21.1226 10.1139 21.0484 10.2875 20.949 10.4463L20.9922 10.3998C20.4053 11.3731 18.8166 11.5845 18.0318 10.5766C16.77 8.95535 18.0582 7.20732 18.2383 5.49054C18.4639 3.33879 17.1145 1.25005 15.4415 0C16.363 1.49065 15.149 3.46278 14.1777 4.56521C13.2359 5.6341 12.0905 6.5264 11.0508 7.49748C9.9339 8.54045 8.86018 9.63907 7.94221 10.8632C6.10627 13.3132 4.98225 16.3946 5.80824 19.4514C6.63373 22.5059 9.27966 24.4503 12.2676 25.1378Z" fill="#EE4323"/>
</g>
</g>
</svg>
