<svg width="32" height="32" viewBox="0 0 32 32" fill="none" xmlns="http://www.w3.org/2000/svg">
<g id="electronjs-svgrepo-com 1" clip-path="url(#clip0_30_176)">
<path id="Vector" d="M11.7694 6.87466C10.9694 6.70532 10.052 6.60799 9.11071 6.60799C8.10804 6.60799 7.12937 6.71866 6.18937 6.92799L6.27871 6.91199C4.87071 7.18932 3.69871 8.02932 2.98404 9.18132L2.97204 9.20266C2.58671 9.85066 2.35871 10.6307 2.35871 11.464C2.35871 11.6987 2.37737 11.9293 2.41204 12.1547L2.40937 12.1293C2.59604 13.42 3.02537 14.5787 3.65071 15.6067L3.62804 15.5667C3.67071 15.6333 3.72537 15.688 3.78937 15.728L3.79204 15.7293C3.85471 15.764 3.92937 15.784 4.00804 15.784H4.02937H4.02804C4.13604 15.78 4.23337 15.732 4.30137 15.6573C4.37737 15.5893 4.42537 15.4933 4.42804 15.3853C4.42804 15.3827 4.42804 15.3813 4.42804 15.3787C4.42804 15.336 4.42137 15.2947 4.40937 15.256L4.41071 15.2587C4.40004 15.232 4.39337 15.2013 4.39204 15.168C3.84537 14.292 3.44937 13.2627 3.27071 12.1613L3.26404 12.1133C3.23337 11.9307 3.21471 11.72 3.21471 11.5053C3.21471 10.82 3.39604 10.1773 3.71337 9.62266L3.70404 9.64132C4.36271 8.64132 5.39604 7.93466 6.60004 7.71732L6.62671 7.71332C7.37337 7.55066 8.22937 7.45732 9.10804 7.45732C9.98671 7.45732 10.844 7.55066 11.6694 7.72799L11.5894 7.71332H11.5947C11.6134 7.71332 11.6307 7.71999 11.644 7.73199L11.6627 7.75066H11.6707C11.7894 7.75066 11.8947 7.70266 11.972 7.62399C12.0507 7.54666 12.0987 7.43866 12.0987 7.31999C12.0987 7.31732 12.0987 7.31599 12.0987 7.31466C12.0987 7.30799 12.0987 7.29999 12.0987 7.29199C12.0987 7.19066 12.064 7.09732 12.0067 7.02266L12.008 7.02399C11.948 6.95332 11.8667 6.90266 11.7747 6.87999H11.772L11.7694 6.87466ZM5.80537 18.5107C6.71604 19.4693 7.67737 20.3547 8.69337 21.176L8.74937 21.22C9.71737 22.0027 10.7974 22.7533 11.9307 23.424L12.056 23.4933C13.3667 24.2533 14.9027 24.976 16.5027 25.5693L16.7147 25.6387C17.976 26.1213 19.4627 26.52 21 26.7667L21.132 26.784C21.7867 26.8947 22.54 26.9573 23.308 26.9573C23.8947 26.9573 24.472 26.92 25.0387 26.8493L24.9707 26.856C26.0774 26.7293 27.076 26.36 27.9427 25.8027L27.9147 25.8187C27.9627 25.7707 28.004 25.7173 28.04 25.6587L28.0427 25.6547C28.0774 25.5987 28.0974 25.5307 28.0974 25.4587C28.0974 25.4573 28.0974 25.456 28.0974 25.456C28.0974 25.4547 28.0974 25.452 28.0974 25.4507C28.0974 25.332 28.0494 25.224 27.9707 25.1467C27.8934 25.068 27.7854 25.02 27.6667 25.02C27.664 25.02 27.6627 25.02 27.6614 25.02C27.6214 25.0253 27.5854 25.0373 27.5534 25.0573L27.5547 25.056C27.5134 25.076 27.4787 25.1 27.448 25.1293C26.668 25.6267 25.7374 25.9587 24.7387 26.0547L24.7134 26.056C24.288 26.1053 23.7947 26.1333 23.296 26.1333C22.5254 26.1333 21.7694 26.0667 21.036 25.9387L21.1147 25.9493C19.54 25.6853 18.1467 25.3067 16.812 24.8067L16.9694 24.8587C15.3014 24.2493 13.8747 23.556 12.5307 22.7413L12.6427 22.804C11.3734 22.0747 10.2867 21.3347 9.26004 20.5213L9.31604 20.564C8.27071 19.7373 7.33737 18.8733 6.47604 17.9427L6.46137 17.9267C6.41604 17.8813 6.36137 17.8453 6.30137 17.8213L6.29871 17.82C6.25071 17.7987 6.19471 17.7853 6.13604 17.784C6.13471 17.784 6.13071 17.784 6.12937 17.784C6.01071 17.784 5.90271 17.832 5.82537 17.9107C5.74671 17.988 5.69871 18.096 5.69871 18.2147V18.22C5.69871 18.2733 5.71204 18.3227 5.73604 18.3667L5.73471 18.3653L5.80537 18.5107ZM26.8614 17.9653C28.064 16.6587 28.9974 15.0853 29.564 13.3453L29.5894 13.256C29.7627 12.7693 29.8627 12.2067 29.8627 11.6213C29.8627 10.748 29.64 9.92666 29.2494 9.21066L29.2627 9.23732C28.7507 8.37199 27.988 7.70266 27.0747 7.32132L27.044 7.31066C26.0134 6.87332 24.8147 6.61999 23.5574 6.61999C23.5427 6.61999 23.528 6.61999 23.5147 6.61999H23.5174C23.5134 6.61999 23.508 6.61999 23.5027 6.61999C23.392 6.61999 23.2934 6.66932 23.2267 6.74666C23.16 6.82532 23.12 6.92932 23.12 7.04132V7.05732V7.05599V7.07066C23.12 7.18266 23.16 7.28532 23.228 7.36532V7.36399C23.2947 7.44266 23.3934 7.49066 23.504 7.49066H23.52C23.5867 7.48799 23.6654 7.48799 23.744 7.48799C24.7894 7.48799 25.788 7.69599 26.6974 8.07332L26.6467 8.05466C27.4387 8.38266 28.0854 8.92932 28.528 9.61999L28.5374 9.63599C28.832 10.212 29.0054 10.8933 29.0054 11.6133C29.0054 12.156 28.9067 12.676 28.728 13.1573L28.7374 13.1267C28.1854 14.7893 27.3334 16.22 26.2387 17.424L26.2467 17.4147L26.1747 17.56C26.152 17.6027 26.1387 17.652 26.1387 17.7053V17.7107C26.1387 17.8293 26.1867 17.9373 26.2654 18.0147C26.3427 18.0933 26.4507 18.1413 26.5694 18.1413H26.5747H26.5854C26.6494 18.1413 26.708 18.1213 26.7574 18.0867H26.756C26.7987 18.0547 26.8454 18.024 26.896 17.9987L26.9014 17.996L26.8614 17.9653ZM19.8427 7.02132C18.252 7.39866 16.892 7.84132 15.584 8.37999L15.7707 8.31199C14.328 8.89866 13.12 9.50266 11.9654 10.1853L12.0987 10.112C10.5094 11.0307 9.13471 12.0107 7.86404 13.1053L7.90004 13.076C6.73204 14.072 5.69471 15.156 4.77337 16.3333L4.73604 16.3827C3.97204 17.3493 3.32804 18.46 2.85737 19.6573L2.82671 19.7453C2.54137 20.4373 2.37471 21.2427 2.37471 22.0853C2.37471 22.364 2.39337 22.6387 2.42804 22.9067L2.42404 22.8747C2.44937 22.9747 2.50004 23.0613 2.56937 23.1293C2.64004 23.196 2.73471 23.236 2.84004 23.236H2.86271H2.86937C2.98804 23.236 3.09471 23.188 3.17204 23.1107C3.25071 23.0333 3.29871 22.9253 3.29871 22.8067C3.29871 22.804 3.29871 22.8027 3.29871 22.8013V22.7293C3.27737 22.544 3.26537 22.328 3.26537 22.1093C3.26537 21.316 3.42671 20.56 3.72004 19.8733L3.70537 19.9107C4.18137 18.7147 4.79204 17.6813 5.53604 16.76L5.51871 16.7827C6.44537 15.6253 7.44671 14.6013 8.54004 13.6827L8.57337 13.656C9.77204 12.64 11.1027 11.6973 12.5134 10.8747L12.6454 10.8027C13.5974 10.2293 14.72 9.66266 15.884 9.17599L16.0587 9.11199C17.1014 8.66799 18.3627 8.25066 19.6614 7.93066L19.84 7.89332C19.9934 7.86399 20.128 7.79999 20.24 7.70799L20.2387 7.70932C20.3054 7.63866 20.3454 7.54399 20.3454 7.43866C20.3454 7.43066 20.3454 7.42399 20.3454 7.41599V7.41732C20.3414 7.30932 20.2934 7.21199 20.2187 7.14399C20.1507 7.06799 20.0547 7.01999 19.9467 7.01732H19.84L19.8427 7.02132ZM9.69737 25.5227C10.312 27.3627 11.256 28.9453 12.4707 30.2787L12.4614 30.268C13.352 31.2933 14.644 31.9507 16.0907 31.9947H16.0987C17.1427 31.984 18.104 31.6307 18.8734 31.0413L18.8627 31.0493C19.8067 30.3333 20.5854 29.452 21.168 28.444L21.1907 28.4013C21.2094 28.3667 21.228 28.324 21.2427 28.2813L21.2454 28.2747C21.2574 28.2387 21.264 28.1973 21.264 28.1547C21.264 28.152 21.264 28.1493 21.264 28.1467C21.264 28.1453 21.264 28.1427 21.264 28.1413C21.264 28.0227 21.216 27.9147 21.1374 27.8373C21.06 27.7587 20.952 27.7107 20.8334 27.7107C20.832 27.7107 20.8294 27.7107 20.828 27.7107C20.8267 27.7107 20.8267 27.7107 20.8254 27.7107C20.7534 27.7107 20.6854 27.7307 20.6267 27.7667L20.628 27.7653C20.5614 27.808 20.5067 27.8627 20.4667 27.9267L20.4654 27.9293C19.9254 28.868 19.2387 29.6587 18.428 30.2987L18.4107 30.312C17.78 30.8107 16.9774 31.116 16.104 31.1307H16.1014C14.8467 31.0693 13.7414 30.4773 12.9974 29.5747L12.992 29.5667C11.9227 28.356 11.084 26.912 10.5627 25.3253L10.5387 25.2387C10.4867 25.1627 10.4267 25.0973 10.3587 25.04L10.3574 25.0387C10.2907 24.9827 10.204 24.948 10.1094 24.948C10.1067 24.948 10.104 24.948 10.1027 24.948C9.99471 24.952 9.89737 25 9.82937 25.0747C9.75071 25.152 9.70271 25.26 9.70271 25.3787V25.384V25.5293L9.69737 25.5227ZM22.788 24.76C23.124 23.7213 23.416 22.4693 23.608 21.1853L23.624 21.052C23.8094 19.852 23.9147 18.468 23.9147 17.06C23.9147 17.044 23.9147 17.0293 23.9147 17.0133V17.016V16.8027C23.9147 16.772 23.9147 16.7373 23.9147 16.7013C23.9147 14.944 23.756 13.224 23.452 11.556L23.4787 11.7307C23.188 10.072 22.7587 8.60132 22.1894 7.20266L22.2427 7.34932C21.7347 6.07066 21.092 4.96666 20.312 3.97599L20.3334 4.00399C19.6987 3.17332 18.888 2.50799 17.9547 2.05732L17.916 2.03999C17.8934 2.01732 17.8627 2.00399 17.828 2.00399C17.8267 2.00399 17.8254 2.00399 17.8254 2.00399H17.7347C17.7307 2.00399 17.7254 2.00399 17.72 2.00399C17.608 2.00399 17.5054 2.04399 17.4254 2.11199C17.3467 2.17866 17.3 2.27866 17.3 2.38799V2.40399V2.41332C17.3 2.50399 17.3267 2.58932 17.3734 2.65999L17.372 2.65866C17.4147 2.72532 17.4774 2.77599 17.5507 2.80266L17.5534 2.80399C18.4427 3.24132 19.1814 3.86399 19.7427 4.62399L19.7547 4.63999C20.4427 5.54666 21.0294 6.58399 21.4694 7.69732L21.5 7.78532C21.9827 8.97199 22.3867 10.3693 22.644 11.816L22.6627 11.9453C22.9294 13.3747 23.0814 15.0187 23.0814 16.6987V16.8053V16.8V17.0133V17.04C23.0814 18.4173 22.976 19.7693 22.772 21.088L22.7907 20.9413C22.5734 22.3733 22.2694 23.636 21.8707 24.856L21.9187 24.6867L21.9547 24.58V24.616V24.6213C21.9547 24.74 22.0027 24.848 22.0814 24.9253C22.1587 25.004 22.2667 25.052 22.3854 25.052H22.3907H22.3974C22.492 25.052 22.5787 25.0173 22.6467 24.9613C22.7107 24.912 22.76 24.8467 22.7907 24.772L22.792 24.7693L22.788 24.76ZM30.8614 24.3227C30.8614 24.3147 30.8614 24.3053 30.8614 24.296C30.8614 23.7427 30.632 23.2427 30.2627 22.8853C29.8987 22.5147 29.3934 22.2853 28.8334 22.2853C28.8174 22.2853 28.8027 22.2853 28.7867 22.2853H28.7894C28.7814 22.2853 28.7734 22.2853 28.764 22.2853C28.2094 22.2853 27.7094 22.516 27.3534 22.8853C26.984 23.2427 26.7534 23.7427 26.7534 24.296V24.324V24.3653C26.7534 24.9253 26.9827 25.432 27.3534 25.7947C27.7107 26.1653 28.2107 26.396 28.7654 26.396H28.792H28.8347C29.3947 26.396 29.9 26.1667 30.264 25.796C30.6334 25.432 30.8627 24.9267 30.8627 24.368C30.8627 24.352 30.8627 24.3347 30.8627 24.3187V24.3213L30.8614 24.3227ZM29.988 24.3227V24.3493C29.988 24.6733 29.856 24.9653 29.6427 25.176C29.432 25.3893 29.14 25.5213 28.816 25.5213C28.8067 25.5213 28.7974 25.5213 28.788 25.5213C28.7867 25.5213 28.7867 25.5213 28.7854 25.5213C28.46 25.5213 28.1667 25.3893 27.9534 25.176C27.7294 24.968 27.5894 24.6733 27.5894 24.344C27.5894 24.336 27.5894 24.328 27.5894 24.3213V24.3227C27.5907 23.9933 27.7294 23.696 27.952 23.4867C28.1614 23.2627 28.4587 23.124 28.788 23.1227H28.8094C29.1374 23.1227 29.4334 23.2627 29.64 23.4853L29.6414 23.4867C29.8547 23.7 29.9867 23.9947 29.9867 24.32L29.988 24.3227ZM3.40537 26.4013H3.43071C3.98404 26.4013 4.48404 26.172 4.84137 25.8027C5.21204 25.4387 5.44271 24.932 5.44271 24.372C5.44271 24.3573 5.44271 24.3413 5.44271 24.3267V24.3293C5.44271 24.3213 5.44271 24.3133 5.44271 24.304C5.44271 23.7493 5.21204 23.2493 4.84271 22.8933C4.48537 22.524 3.98537 22.2933 3.43204 22.2933C3.42271 22.2933 3.41337 22.2933 3.40404 22.2933H3.40537C3.39204 22.2933 3.37737 22.2933 3.36271 22.2933C2.80271 22.2933 2.29604 22.5227 1.93337 22.8933C1.56404 23.2507 1.33337 23.7507 1.33337 24.304V24.332V24.3307V24.3733C1.33337 24.9333 1.56271 25.44 1.93337 25.8027C2.29737 26.172 2.80271 26.4013 3.36137 26.4013H3.40804H3.40537ZM3.40537 25.528C3.39737 25.528 3.38804 25.528 3.37871 25.528C3.05471 25.528 2.76271 25.396 2.55204 25.1827C2.33871 24.972 2.20671 24.68 2.20671 24.356C2.20671 24.3467 2.20671 24.3373 2.20671 24.328C2.20671 24.3267 2.20671 24.3267 2.20671 24.3253C2.20671 24 2.33871 23.7067 2.55204 23.4933C2.76004 23.2693 3.05471 23.1293 3.38404 23.1293H3.40671C3.73604 23.1307 4.03204 23.2693 4.24137 23.492C4.46537 23.7013 4.60404 23.9987 4.60537 24.328V24.3493C4.60537 24.6773 4.46537 24.9733 4.24271 25.18L4.24137 25.1813C4.02804 25.392 3.73604 25.5213 3.41337 25.5213C3.41071 25.5213 3.40804 25.5213 3.40537 25.5213V25.528ZM16.0987 4.10932H16.1427C16.7027 4.10932 17.208 3.87999 17.572 3.50932C17.9427 3.15199 18.1734 2.65199 18.1734 2.09732C18.1734 2.08799 18.1734 2.07999 18.1734 2.07066V2.07199C18.1734 2.05866 18.1734 2.04399 18.1734 2.02799C18.1734 1.46799 17.944 0.962657 17.5734 0.598657C17.2094 0.227991 16.704 -0.00134277 16.144 -0.00134277C16.128 -0.00134277 16.1134 -0.00134277 16.0974 -0.00134277H16.1C16.092 -0.00134277 16.084 -0.00134277 16.0747 -0.00134277C15.52 -0.00134277 15.02 0.229324 14.664 0.598657C14.2934 0.962657 14.064 1.46799 14.064 2.02799V2.07466V2.07199V2.09732C14.064 2.65199 14.2947 3.15199 14.664 3.50799C15.0214 3.87732 15.5214 4.10799 16.0747 4.10799H16.0974H16.096L16.0987 4.10932ZM16.0987 3.23732C16.096 3.23732 16.092 3.23732 16.0894 3.23732C15.772 3.23732 15.4854 3.10532 15.2814 2.89199C15.068 2.68799 14.936 2.40132 14.936 2.08399C14.936 2.07999 14.936 2.07732 14.936 2.07332C14.936 2.06532 14.936 2.05599 14.936 2.04666C14.936 1.72266 15.068 1.43066 15.2814 1.21999C15.4854 1.00666 15.772 0.874657 16.0894 0.874657H16.1H16.1267C16.4507 0.874657 16.7427 1.00666 16.9534 1.21999C17.1667 1.43066 17.2987 1.72266 17.2987 2.04666V2.07466V2.07332V2.08266C17.2987 2.39999 17.1667 2.68666 16.9534 2.89066C16.7427 3.10532 16.4494 3.23732 16.1254 3.23732C16.116 3.23732 16.1067 3.23732 16.0987 3.23732ZM16.4267 18.256C16.38 18.2787 16.3267 18.292 16.2694 18.292C16.268 18.292 16.2654 18.292 16.264 18.292H16.0974C16.0907 18.292 16.0827 18.292 16.0734 18.292C15.6694 18.292 15.304 18.1253 15.0427 17.856C14.7734 17.5947 14.6067 17.2293 14.6067 16.824C14.6067 16.816 14.6067 16.808 14.6067 16.7987V16.8C14.6067 16.7907 14.6067 16.78 14.6067 16.7693C14.6067 16.372 14.7747 16.0147 15.0427 15.764L15.044 15.7627C15.308 15.504 15.6707 15.344 16.0707 15.344H16.1H16.1267C16.476 15.344 16.796 15.468 17.0467 15.6733L17.044 15.672C17.2947 15.8693 17.4747 16.1453 17.5507 16.4627L17.552 16.472V16.4867C17.552 16.5453 17.5587 16.6027 17.5707 16.6587L17.5694 16.6533C17.5814 16.6973 17.588 16.7467 17.588 16.7987V16.8267C17.588 17.176 17.464 17.496 17.2587 17.7467L17.26 17.744C17.0534 18 16.7654 18.184 16.4347 18.2533L16.4254 18.2547L16.4267 18.256Z" fill="black"/>
</g>
<defs>
<clipPath id="clip0_30_176">
<rect width="32" height="32" fill="white"/>
</clipPath>
</defs>
</svg>
