<svg width="32" height="32" viewBox="0 0 32 32" fill="none" xmlns="http://www.w3.org/2000/svg">
<path d="M14 20.6668C10.6667 21.6668 10.6667 19.0001 9.33334 18.6668M18.6667 22.6668V20.0868C18.6917 19.7689 18.6487 19.4493 18.5407 19.1493C18.4326 18.8493 18.262 18.5757 18.04 18.3468C20.1333 18.1135 22.3333 17.3201 22.3333 13.6801C22.3332 12.7493 21.9751 11.8543 21.3333 11.1801C21.6372 10.3658 21.6158 9.46569 21.2733 8.66679C21.2733 8.66679 20.4867 8.43345 18.6667 9.65345C17.1387 9.23934 15.528 9.23934 14 9.65345C12.18 8.43345 11.3933 8.66679 11.3933 8.66679C11.0509 9.46569 11.0294 10.3658 11.3333 11.1801C10.6868 11.8593 10.3284 12.7624 10.3333 13.7001C10.3333 17.3135 12.5333 18.1068 14.6267 18.3668C14.4073 18.5934 14.2382 18.8637 14.1302 19.1601C14.0222 19.4564 13.9779 19.7722 14 20.0868V22.6668" stroke="#343434" stroke-linecap="round" stroke-linejoin="round"/>
<circle cx="16" cy="16" r="15.5" stroke="#343434"/>
</svg>
