<svg width="32" height="32" viewBox="0 0 32 32" fill="none" xmlns="http://www.w3.org/2000/svg">
<g id="laravel-1-logo-svgrepo-com 1" clip-path="url(#clip0_30_198)">
<path id="Vector" d="M31.8858 15.277C31.6575 15.0487 28.7277 11.3579 28.2331 10.7491C27.7004 10.1403 27.4721 10.2545 27.1296 10.2925C26.7872 10.3306 23.0963 10.9774 22.6778 11.0154C22.2592 11.0915 21.9929 11.2437 22.2592 11.6242C22.4875 11.9667 24.9227 15.3912 25.4554 16.1902L15.7527 18.5113L8.06659 5.61236C7.76219 5.15576 7.68609 5.00356 7.00119 5.04161C6.31629 5.07966 0.951247 5.53626 0.570747 5.53626C0.190248 5.57431 -0.228302 5.72651 0.152198 6.63971C0.532697 7.5529 6.62069 20.6421 6.77289 21.0226C6.92509 21.4031 7.38169 22.0119 8.40903 21.7836C9.47443 21.5172 13.1272 20.566 15.1439 20.0333C16.2093 21.9358 18.3401 25.8169 18.7586 26.3876C19.2913 27.1486 19.6718 26.9964 20.4709 26.7681C21.1177 26.5779 30.4399 23.2295 30.8585 23.0392C31.277 22.849 31.5434 22.7348 31.239 22.3163C31.0107 22.0119 28.5755 18.7015 27.2818 16.9893C28.1569 16.761 31.3151 15.9239 31.6575 15.8097C32.038 15.6956 32.1141 15.5053 31.8858 15.277ZM14.2687 18.8918C14.1546 18.9298 8.71343 20.2235 8.44709 20.2996C8.14269 20.3757 8.14268 20.3377 8.14268 20.2235C8.06659 20.1094 1.6742 6.86801 1.56005 6.71581C1.48395 6.56361 1.48395 6.41141 1.56005 6.41141C1.63615 6.41141 6.69679 5.95481 6.84899 5.95481C7.03924 5.95481 7.00119 5.99286 7.07729 6.10701C7.07729 6.10701 14.1926 18.3971 14.3068 18.5874C14.459 18.7776 14.3829 18.8537 14.2687 18.8918ZM29.5648 21.7455C29.6409 21.8977 29.7551 21.9738 29.4507 22.0499C29.1843 22.1641 20.2806 25.17 20.0904 25.2461C19.9001 25.3222 19.786 25.3603 19.5577 25.0178C19.3294 24.6754 16.4376 19.6908 16.4376 19.6908L25.912 17.2176C26.1403 17.1415 26.2164 17.1034 26.3686 17.3317C26.5208 17.5981 29.4887 21.6314 29.5648 21.7455ZM30.1736 15.0487C29.9453 15.0868 26.4828 15.9619 26.4828 15.9619L23.629 12.0808C23.5529 11.9667 23.4768 11.8525 23.6671 11.8145C23.8573 11.7764 27.0916 11.2057 27.2438 11.1676C27.396 11.1296 27.5101 11.0915 27.7004 11.3579C27.8906 11.5862 30.3258 14.7063 30.4399 14.8204C30.5541 14.9346 30.4019 15.0107 30.1736 15.0487Z" fill="#FB503B"/>
</g>
<defs>
<clipPath id="clip0_30_198">
<rect width="32" height="32" fill="white"/>
</clipPath>
</defs>
</svg>
