<svg width="32" height="32" viewBox="0 0 32 32" fill="none" xmlns="http://www.w3.org/2000/svg">
<path d="M18.6667 13.3333C19.7275 13.3333 20.7449 13.7547 21.4951 14.5048C22.2452 15.255 22.6667 16.2724 22.6667 17.3333V21.9999H20V17.3333C20 16.9796 19.8595 16.6405 19.6095 16.3904C19.3594 16.1404 19.0203 15.9999 18.6667 15.9999C18.313 15.9999 17.9739 16.1404 17.7238 16.3904C17.4738 16.6405 17.3333 16.9796 17.3333 17.3333V21.9999H14.6667V17.3333C14.6667 16.2724 15.0881 15.255 15.8382 14.5048C16.5884 13.7547 17.6058 13.3333 18.6667 13.3333Z" stroke="#343434" stroke-width="1.1" stroke-linecap="round" stroke-linejoin="round"/>
<path d="M12 14H9.33334V22H12V14Z" stroke="#343434" stroke-width="1.1" stroke-linecap="round" stroke-linejoin="round"/>
<path d="M10.6667 11.9999C11.4031 11.9999 12 11.403 12 10.6666C12 9.93021 11.4031 9.33325 10.6667 9.33325C9.9303 9.33325 9.33334 9.93021 9.33334 10.6666C9.33334 11.403 9.9303 11.9999 10.6667 11.9999Z" stroke="#343434" stroke-width="1.1" stroke-linecap="round" stroke-linejoin="round"/>
<circle cx="16" cy="16" r="15.5" stroke="#343434"/>
</svg>
