<svg width="48" height="32" viewBox="0 0 48 32" fill="none" xmlns="http://www.w3.org/2000/svg">
<g id="Group 6">
<path id="Vector" d="M11.7686 29.1522H9.95048C9.88619 26.0833 9.70912 23.1982 9.41962 20.4947H9.40346L6.63534 29.1522H5.25111L2.49951 20.4947H2.4837C2.27957 23.0903 2.15099 25.9761 2.09759 29.1522H0.440369C0.547173 25.29 0.815588 21.6692 1.24456 18.2894H3.49798L6.12065 26.2713H6.13681L8.77564 18.2894H10.9317C11.4039 22.2482 11.6829 25.8693 11.7686 29.1522ZM19.6535 21.1376C18.9132 25.1547 17.9365 28.0736 16.7244 29.8956C15.7801 31.2981 14.7454 32 13.6187 32C13.3183 32 12.9477 31.9094 12.5085 31.7295V30.7609C12.7232 30.7918 12.9751 30.8094 13.2646 30.8094C13.7909 30.8094 14.2139 30.6646 14.5364 30.3744C14.9221 30.021 15.115 29.6236 15.115 29.1841C15.115 28.8827 14.9646 28.2665 14.6646 27.3333L12.6694 21.1373H14.4556L15.8876 25.7713C16.2094 26.8235 16.3436 27.5582 16.2899 27.9766C17.073 25.8851 17.62 23.6047 17.9316 21.1369H19.6535V21.1376Z" fill="#5D87A1"/>
<path id="Vector_2" d="M43.855 29.1524H38.6905V18.2897H40.4278V27.8152H43.855V29.1524ZM37.3386 29.4148L35.3416 28.4294C35.5187 28.2839 35.688 28.1265 35.8405 27.9442C36.6893 26.9471 37.1127 25.4726 37.1127 23.5195C37.1127 19.9258 35.7024 18.1281 32.8809 18.1281C31.4974 18.1281 30.4181 18.5841 29.6462 19.4965C28.7981 20.4942 28.3748 21.9635 28.3748 23.906C28.3748 25.8155 28.75 27.2162 29.5008 28.1047C30.1876 28.9096 31.223 29.3126 32.6076 29.3126C33.124 29.3126 33.598 29.2494 34.0298 29.1218L36.6296 30.6353L37.3386 29.4148ZM30.8696 26.9787C30.4297 26.2711 30.2098 25.1349 30.2098 23.5684C30.2098 20.8333 31.0407 19.4642 32.7042 19.4642C33.5737 19.4642 34.2111 19.7916 34.6186 20.4451C35.0578 21.1537 35.2787 22.2797 35.2787 23.8245C35.2787 26.5821 34.4472 27.961 32.7847 27.961C31.9148 27.9614 31.2775 27.635 30.8696 26.9787ZM27.6177 26.1415C27.6177 27.0627 27.2797 27.8184 26.6044 28.4104C25.9285 28.9999 25.0221 29.2954 23.8862 29.2954C22.8238 29.2954 21.7937 28.956 20.7966 28.2807L21.2635 27.348C22.1215 27.7776 22.8983 27.9912 23.5957 27.9912C24.2502 27.9912 24.7617 27.8461 25.1327 27.5584C25.5034 27.2696 25.7244 26.8645 25.7244 26.3523C25.7244 25.7069 25.2743 25.1553 24.4487 24.6933C23.6874 24.2752 22.1647 23.4011 22.1647 23.4011C21.3394 22.7997 20.9263 22.1539 20.9263 21.0901C20.9263 20.2097 21.2344 19.4989 21.851 18.9582C22.4683 18.4154 23.2647 18.1449 24.2411 18.1449C25.2494 18.1449 26.166 18.4151 26.9916 18.9498L26.5728 19.8829C25.8667 19.5829 25.1696 19.4329 24.4821 19.4329C23.9252 19.4329 23.4952 19.5667 23.1962 19.8355C22.8948 20.1032 22.7089 20.4458 22.7089 20.866C22.7089 21.5082 23.1685 22.0668 24.0166 22.5379C24.7881 22.9567 26.3487 23.8459 26.3487 23.8459C27.195 24.4463 27.6177 25.0861 27.6177 26.1415Z" fill="#F8981D"/>
<path id="Vector_3" d="M46.0359 14.6511C44.9855 14.6244 44.1722 14.7302 43.4895 15.019C43.2924 15.0977 42.979 15.0976 42.9516 15.3467C43.0581 15.4521 43.0704 15.6222 43.1628 15.7676C43.3202 16.0301 43.5946 16.3832 43.8451 16.5673C44.1202 16.7781 44.3963 16.9867 44.6858 17.1705C45.1963 17.4863 45.7749 17.6701 46.2724 17.9849C46.5622 18.1679 46.8503 18.4047 47.1405 18.6018C47.2832 18.7068 47.3745 18.8772 47.5597 18.9429V18.9029C47.4669 18.7848 47.4406 18.6141 47.3496 18.4827L46.9554 18.1026C46.5745 17.591 46.1013 17.1445 45.5908 16.7777C45.1706 16.4882 44.2516 16.0947 44.0812 15.6106L44.0545 15.5839C44.3432 15.5568 44.6858 15.4521 44.9602 15.3717C45.4067 15.254 45.8139 15.2807 46.272 15.163C46.4828 15.1103 46.6919 15.0442 46.9034 14.9792V14.8609C46.6659 14.6244 46.4965 14.3103 46.2467 14.0869C45.5785 13.5096 44.8421 12.9451 44.0812 12.4725C43.6736 12.2094 43.1494 12.04 42.7155 11.8162C42.5592 11.7372 42.2957 11.6982 42.2037 11.5668C41.9683 11.278 41.8358 10.8979 41.6651 10.556C41.2856 9.83475 40.9171 9.03442 40.5897 8.27169C40.3529 7.76015 40.2088 7.24932 39.92 6.77608C38.5674 4.54515 37.0985 3.19394 34.8409 1.86767C34.3557 1.59153 33.7784 1.47383 33.1619 1.32908L32.1771 1.27709C31.967 1.18504 31.7566 0.935245 31.5732 0.817199C30.8241 0.345014 28.8957 -0.678406 28.3448 0.672803C27.99 1.52688 28.8697 2.36656 29.1718 2.79975C29.3949 3.10048 29.6841 3.44268 29.8401 3.78417C29.9325 4.00726 29.9585 4.24406 30.0509 4.4798C30.2609 5.05738 30.4573 5.69996 30.7335 6.2389C30.8775 6.51364 31.0346 6.80243 31.2187 7.05117C31.3241 7.19662 31.5075 7.26092 31.5475 7.49806C31.3645 7.75945 31.3501 8.15399 31.245 8.48213C30.7728 9.96509 30.9573 11.8022 31.6266 12.892C31.836 13.2201 32.3355 13.9425 33.0038 13.6656C33.5954 13.4295 33.4644 12.6816 33.6344 12.0256C33.6734 11.8672 33.6478 11.7632 33.7265 11.6592V11.6848C33.9095 12.052 34.0943 12.4058 34.264 12.774C34.6712 13.4165 35.3802 14.0862 35.9707 14.5313C36.2852 14.7688 36.5343 15.1749 36.9281 15.32V15.2807H36.9021C36.8224 15.163 36.7057 15.1103 36.601 15.019C36.3642 14.7825 36.1021 14.4937 35.9184 14.2316C35.3682 13.4963 34.8813 12.6823 34.4491 11.8422C34.2376 11.4347 34.0553 10.9892 33.8849 10.5824C33.8055 10.4253 33.8055 10.1885 33.6738 10.1095C33.4763 10.3979 33.1886 10.6477 33.0445 11.0012C32.7947 11.5664 32.7687 12.2617 32.676 12.9848L32.6243 13.0101C32.2063 12.905 32.0608 12.4725 31.902 12.1054C31.5089 11.173 31.4428 9.6763 31.784 8.60053C31.8753 8.32544 32.2705 7.45906 32.1128 7.19697C32.0338 6.94577 31.771 6.80278 31.6269 6.60498C31.4576 6.35624 31.2721 6.04145 31.154 5.76531C30.8392 5.03068 30.6808 4.21665 30.3418 3.48238C30.1833 3.14018 29.9082 2.78604 29.6855 2.4709C29.4353 2.11676 29.1602 1.86732 28.9624 1.44748C28.8971 1.30309 28.8054 1.06699 28.9104 0.90995C28.9361 0.804551 28.9895 0.765203 29.0942 0.738853C29.2642 0.59516 29.7501 0.77785 29.9205 0.856899C30.4071 1.05364 30.8139 1.23739 31.2201 1.51283C31.4038 1.64458 31.6009 1.89402 31.8367 1.95972H32.1128C32.5319 2.05106 33.0045 1.98502 33.399 2.10376C34.0943 2.32721 34.7242 2.655 35.2892 3.00879C37.0082 4.09896 38.4258 5.64797 39.3828 7.49806C39.5399 7.7995 39.6066 8.07565 39.75 8.39008C40.0265 9.03372 40.3683 9.69 40.6427 10.3199C40.9185 10.9365 41.1813 11.5661 41.5751 12.0783C41.7715 12.3538 42.5606 12.4982 42.9144 12.6426C43.1761 12.7603 43.5837 12.865 43.8198 13.0094C44.2663 13.2844 44.7111 13.6003 45.1309 13.9028C45.34 14.0602 45.997 14.3883 46.0359 14.6511ZM32.6482 3.24558C32.467 3.2437 32.2864 3.26591 32.111 3.31163V3.33798H32.1363C32.2421 3.54772 32.4258 3.69317 32.5569 3.87622C32.6626 4.08666 32.7543 4.29535 32.858 4.50545L32.8833 4.47945C33.0684 4.3484 33.1605 4.13831 33.1605 3.82317C33.0807 3.73041 33.0684 3.63977 33.002 3.54772C32.9247 3.41633 32.7543 3.35098 32.6482 3.24558Z" fill="#5D87A1"/>
<path id="Vector_4" d="M47.2856 29.1506H47.5575V27.8198H47.1496L46.8169 28.728L46.4554 27.8198H46.0626V29.1506H46.3194V28.1381H46.3339L46.7126 29.1506H46.9083L47.2856 28.1381V29.1506ZM45.0951 29.1506H45.3828V28.0454H45.7594V27.8195H44.7026V28.0454H45.0944L45.0951 29.1506Z" fill="#F8981D"/>
</g>
</svg>
