<svg width="32" height="32" viewBox="0 0 32 32" fill="none" xmlns="http://www.w3.org/2000/svg">
<g id="Frame">
<path id="a" d="M14.7271 3.97809C12.0937 3.97809 9.75425 5.67119 8.93895 8.17161L8.64502 9.88865V15.5798C8.64502 15.8644 8.79132 16.1171 9.03604 16.2634L13.6179 18.9036V11.083H13.6193V10.7119L18.257 8.03329C18.7054 7.77367 19.1938 7.59629 19.6996 7.50357L19.2532 5.98906C18.1014 4.70162 16.4535 3.97011 14.7271 3.97809ZM14.7271 5.54085L14.7192 5.54883C15.7792 5.54883 16.798 5.91458 17.6133 6.59156C17.58 6.60752 17.5148 6.64875 17.467 6.67269L12.6723 9.43379C12.4276 9.57211 12.2813 9.83279 12.2813 10.1174V16.5985L10.2184 15.4095V10.0522C10.2171 7.56381 12.2347 5.54484 14.7271 5.54085Z" fill="#74AA9C"/>
<path id="a_2" d="M25.7749 8.88669C24.4582 6.6061 21.8222 5.42659 19.2491 5.97073L17.6151 6.5747L12.6865 9.42025C12.44 9.56256 12.2943 9.81561 12.29 10.1007L12.2944 15.3889L19.0673 11.4785L19.0679 11.4797L19.3893 11.2941L24.0279 13.9712C24.477 14.2298 24.8748 14.5641 25.208 14.9557L26.2964 13.8118C26.8354 12.1706 26.645 10.3778 25.7749 8.88669ZM24.4215 9.66807L24.4106 9.66515C24.9406 10.5831 25.1333 11.6483 24.9546 12.6929C24.9242 12.6721 24.8559 12.6362 24.8112 12.6067L20.0227 9.83498C19.7805 9.6922 19.4816 9.69584 19.2351 9.83815L13.6223 13.0787L13.6206 10.6977L18.2602 8.01909C20.4145 6.77373 23.1718 7.51157 24.4215 9.66807Z" fill="#74AA9C"/>
<path id="a_3" d="M27.0477 20.9087C28.3644 18.6281 28.0679 15.7555 26.3102 13.7992L24.9701 12.6862L20.0415 9.84062C19.795 9.69831 19.503 9.69865 19.2539 9.83744L14.6765 12.4853L21.4493 16.3957L21.4487 16.3968L21.77 16.5823L21.7709 21.9381C21.7716 22.4562 21.6809 22.9679 21.5083 23.4523L23.0432 23.8229C24.734 23.4691 26.1915 22.4078 27.0477 20.9087ZM25.6944 20.1273L25.6914 20.1164C25.1614 21.0344 24.3353 21.7339 23.3414 22.1014C23.3442 22.0647 23.341 21.9876 23.3442 21.9342L23.3504 16.4013C23.353 16.1202 23.2004 15.8632 22.9539 15.7209L17.3411 12.4803L19.4022 11.2883L24.0417 13.967C26.1975 15.21 26.9371 17.9668 25.6944 20.1273Z" fill="#74AA9C"/>
<path id="a_4" d="M17.2729 28.0219C19.9063 28.0219 22.2458 26.3288 23.061 23.8284L23.355 22.1114V16.4202C23.355 16.1356 23.2087 15.8829 22.964 15.7366L18.3821 13.0964V20.917H18.3807V21.2881L13.743 23.9667C13.2946 24.2263 12.8062 24.4037 12.3004 24.4964L12.7468 26.0109C13.8986 27.2984 15.5465 28.0299 17.2729 28.0219ZM17.2729 26.4591L17.2808 26.4512C16.2208 26.4512 15.202 26.0854 14.3867 25.4084C14.42 25.3925 14.4852 25.3513 14.533 25.3273L19.3277 22.5662C19.5724 22.4279 19.7187 22.1672 19.7187 21.8826V15.4015L21.7816 16.5905V21.9478C21.7829 24.4362 19.7653 26.4552 17.2729 26.4591Z" fill="#74AA9C"/>
<path id="a_5" d="M6.2251 23.1133C7.54181 25.3939 10.1778 26.5734 12.7509 26.0293L14.3849 25.4253L19.3135 22.5798C19.56 22.4374 19.7057 22.1844 19.71 21.8993L19.7056 16.6111L12.9327 20.5215L12.9321 20.5203L12.6107 20.7059L7.97209 18.0288C7.52305 17.7702 7.1252 17.4359 6.79201 17.0443L5.70365 18.1882C5.16458 19.8294 5.35502 21.6222 6.2251 23.1133ZM7.57849 22.3319L7.5894 22.3348C7.05939 21.4169 6.86674 20.3517 7.04537 19.3071C7.07582 19.3279 7.14411 19.3638 7.18879 19.3933L11.9773 22.165C12.2195 22.3078 12.5184 22.3042 12.7649 22.1618L18.3777 18.9213L18.3794 21.3023L13.7398 23.9809C11.5855 25.2263 8.82816 24.4884 7.57849 22.3319Z" fill="#74AA9C"/>
<path id="a_6" d="M4.95225 11.0913C3.63555 13.3719 3.93207 16.2445 5.68985 18.2008L7.02988 19.3138L11.9585 22.1594C12.205 22.3017 12.497 22.3013 12.7461 22.1626L17.3235 19.5147L10.5507 15.6043L10.5513 15.6032L10.23 15.4177L10.2291 10.0619C10.2284 9.5438 10.3191 9.0321 10.4917 8.5477L8.95681 8.17712C7.26596 8.53087 5.80852 9.59222 4.95225 11.0913ZM6.30564 11.8727L6.30856 11.8836C6.83856 10.9656 7.66472 10.2661 8.65864 9.89856C8.65584 9.93533 8.65896 10.0124 8.65575 10.0658L8.64959 15.5987C8.64702 15.8798 8.79963 16.1368 9.04612 16.2791L14.6589 19.5197L12.5978 20.7117L7.95825 18.033C5.80254 16.79 5.06289 14.0332 6.30564 11.8727Z" fill="#74AA9C"/>
</g>
</svg>
