<svg width="54" height="32" viewBox="0 0 54 32" fill="none" xmlns="http://www.w3.org/2000/svg">
<g id="Frame">
<g id="Clip path group">
<mask id="mask0_30_207" style="mask-type:luminance" maskUnits="userSpaceOnUse" x="5" y="2" width="44" height="27">
<g id="prefix__clip0">
<path id="Vector" d="M5.00012 2.50916H48.9999V28.909H5.00012V2.50916Z" fill="white"/>
</g>
</mask>
<g mask="url(#mask0_30_207)">
<g id="Group">
<path id="Vector_2" fill-rule="evenodd" clip-rule="evenodd" d="M27 2.50916C21.1334 2.50916 17.4667 5.44248 16.0001 11.3091C18.2001 8.3758 20.7667 7.2758 23.7 8.00913C25.3737 8.42713 26.5698 9.64201 27.8939 10.9856C30.0507 13.175 32.5473 15.7091 38 15.7091C43.8666 15.7091 47.5333 12.7758 48.9999 6.90914C46.7999 9.84246 44.2333 10.9425 41.3 10.2091C39.6263 9.79112 38.4302 8.57624 37.1061 7.23262C34.9493 5.04322 32.4527 2.50916 27 2.50916ZM16.0001 15.7091C10.1334 15.7091 6.46678 18.6424 5.00012 24.5091C7.20011 21.5757 9.76677 20.4757 12.7001 21.2091C14.3737 21.6279 15.5699 22.842 16.8939 24.1856C19.0507 26.375 21.5473 28.909 27 28.909C32.8667 28.909 36.5333 25.9757 38 20.1091C35.8 23.0424 33.2333 24.1424 30.3 23.4091C28.6264 22.9911 27.4302 21.7762 26.1062 20.4326C23.9494 18.2432 21.4528 15.7091 16.0001 15.7091Z" fill="#38BDF8"/>
</g>
</g>
</g>
</g>
</svg>
