<svg width="34" height="32" viewBox="0 0 34 32" fill="none" xmlns="http://www.w3.org/2000/svg">
<g id="Frame">
<path id="Vector" d="M32.4171 4.71476L17.843 30.7758C17.5421 31.3138 16.769 31.317 16.4636 30.7816L1.60054 4.71727C1.2678 4.13377 1.76676 3.42699 2.42798 3.54518L17.0177 6.153C17.1107 6.16963 17.206 6.16948 17.2991 6.15252L31.5837 3.54891C32.2427 3.4288 32.744 4.13011 32.4171 4.71476Z" fill="url(#paint0_linear_30_226)"/>
<path id="Vector_2" d="M23.9675 0.124713L13.1823 2.23804C13.005 2.27278 12.8738 2.423 12.8631 2.60329L12.1996 13.8083C12.184 14.0722 12.4264 14.2771 12.684 14.2177L15.6868 13.5247C15.9677 13.4599 16.2216 13.7073 16.1638 13.9899L15.2717 18.3584C15.2117 18.6524 15.4877 18.9038 15.7748 18.8166L17.6295 18.2532C17.917 18.1659 18.1933 18.418 18.1325 18.7122L16.7147 25.5743C16.626 26.0035 17.1969 26.2376 17.435 25.8696L17.5941 25.6238L26.3825 8.08492C26.5297 7.79126 26.2759 7.4564 25.9534 7.51865L22.8625 8.11518C22.5721 8.17118 22.3249 7.90068 22.4069 7.61651L24.4243 0.623128C24.5063 0.338475 24.2583 0.0677453 23.9675 0.124713Z" fill="url(#paint1_linear_30_226)"/>
</g>
<defs>
<linearGradient id="paint0_linear_30_226" x1="1.23765" y1="2.61379" x2="19.3763" y2="27.2475" gradientUnits="userSpaceOnUse">
<stop stop-color="#41D1FF"/>
<stop offset="1" stop-color="#BD34FE"/>
</linearGradient>
<linearGradient id="paint1_linear_30_226" x1="16.1803" y1="0.698478" x2="19.4615" y2="23.2071" gradientUnits="userSpaceOnUse">
<stop stop-color="#FFEA83"/>
<stop offset="0.0833333" stop-color="#FFDD35"/>
<stop offset="1" stop-color="#FFA800"/>
</linearGradient>
</defs>
</svg>
